<svg width="544" height="544" viewBox="0 0 544 544" fill="none" xmlns="http://www.w3.org/2000/svg">
<rect width="544" height="544" rx="200" fill="#D7EBF4"/>
<path d="M292.438 180.087V331.308C292.438 342.336 283.528 351.246 272.5 351.246C261.472 351.246 252.562 342.336 252.562 331.308V180.087L206.831 225.821C199.043 233.609 186.395 233.609 178.607 225.821C170.819 218.032 170.819 205.384 178.607 197.595L258.357 117.841C266.145 110.053 278.793 110.053 286.581 117.841L366.331 197.595C374.119 205.384 374.119 218.032 366.331 225.821C358.543 233.609 345.895 233.609 338.107 225.821L292.438 180.087ZM152.875 331.308H232.625C232.625 353.302 250.506 371.185 272.5 371.185C294.494 371.185 312.375 353.302 312.375 331.308H392.125C414.119 331.308 432 349.19 432 371.185V391.123C432 413.118 414.119 431 392.125 431H152.875C130.881 431 113 413.118 113 391.123V371.185C113 349.19 130.881 331.308 152.875 331.308ZM382.156 396.108C386.122 396.108 389.925 394.532 392.73 391.728C395.534 388.923 397.109 385.12 397.109 381.154C397.109 377.188 395.534 373.384 392.73 370.58C389.925 367.775 386.122 366.2 382.156 366.2C378.19 366.2 374.387 367.775 371.583 370.58C368.779 373.384 367.203 377.188 367.203 381.154C367.203 385.12 368.779 388.923 371.583 391.728C374.387 394.532 378.19 396.108 382.156 396.108Z" fill="#163252"/>
</svg>
